<svg xmlns="http://www.w3.org/2000/svg" viewBox="0 0 64 64"><defs><style>.a{fill:none;stroke:#000;stroke-miterlimit:10;stroke-width:6px;}</style></defs><title>jtaLogo</title><path d="M25,34H57a2.3,2.3,0,0,1,1,1,2.2,2.2,0,0,1,0,2,2,2,0,0,1-2,1H24l-1.4,3.2c-1.3,3.9-2.8,6.7-4.3,8.3a7.1,7.1,0,0,1-5.5,2.4,6.6,6.6,0,0,1-5.2-2.4,8.4,8.4,0,0,1-2.1-5.9,10.6,10.6,0,0,1,1.2-5l.9-1.4a13.8,13.8,0,0,1,2.6-2.3c.9-.5,2-.8,7.8-.9h3l3.7-12.1a14.6,14.6,0,0,0,1-4,2.1,2.1,0,0,0-.7-1.6,2.5,2.5,0,0,0-1.7-.6,3.7,3.7,0,0,0-3,1.7A5.6,5.6,0,0,0,19,21.1a2.4,2.4,0,0,0,.5,1.8,4.4,4.4,0,0,0,1.6,1.2,1.7,1.7,0,0,1,1.2,1.7,2.9,2.9,0,0,1-.7,1.9,2.5,2.5,0,0,1-1.9.7,4.5,4.5,0,0,1-3.6-2,8.2,8.2,0,0,1-1.5-5,10.4,10.4,0,0,1,2.8-7.3,8.3,8.3,0,0,1,6.4-3.2,6.3,6.3,0,0,1,4.6,1.9,6.7,6.7,0,0,1,1.8,4.7,13.3,13.3,0,0,1-.8,4.4Zm-6,4a14.3,14.3,0,0,0-6,1,4.8,4.8,0,0,0-1.9,1.5,4.6,4.6,0,0,0-.9,1.7,5.1,5.1,0,0,0-.2,1.3,3.7,3.7,0,0,0,.9,2.5A2.6,2.6,0,0,0,13,47a3.6,3.6,0,0,0,2.8-1.5,17.2,17.2,0,0,0,2.5-5.1Zm11-2,11-3"/><path d="M38.5,22.9H39c1.5,0,2.2.6,2.2,1.7a2.6,2.6,0,0,1-.8,1.9,3.3,3.3,0,0,1-2.1.6H37.1L35,34h2c.9.3,2,.7,2,1s0,.1-.1.2-.1.9-.4,1.4l-.4.4a3.3,3.3,0,0,1-2.1.7H33a3,3,0,0,1-2-.7c-.2-.2-.4-.4-.4-.5S30.2,35,30,35s-.4.3-1,2l1.8-4.3,2-5.6h-.2c-1.3,0-1.9-.5-1.9-1.7a2.1,2.1,0,0,1,.7-1.8,2.8,2.8,0,0,1,2.1-.7h.8l.9-2.5.2-.5c.5-1.5,1.4-2.2,2.5-2.2a1.7,1.7,0,0,1,1.2.5,2.1,2.1,0,0,1,.5,1.3,5.9,5.9,0,0,1-.5,1.9Z"/><path d="M53,30.5h1.9c1.4,0,2.1.5,2.1,1.7a2.3,2.3,0,0,1-.8,1.8,3.3,3.3,0,0,1-2.1.7H52a2,2,0,0,1-2-1.3,3.9,3.9,0,0,1-2.4,1.3h-2a3.5,3.5,0,0,1-3-1.6,6.7,6.7,0,0,1-1.1-3.9,10.3,10.3,0,0,1,2.2-6.6q2.3-3,5.1-3a3.2,3.2,0,0,1,3.1,1.8,2.6,2.6,0,0,1,2.3-1.5,1.8,1.8,0,0,1,1.2.5,2.4,2.4,0,0,1,.5,1.4,3.9,3.9,0,0,1-.3,1.3l-.2.5Zm-6.1.1h.4a1.8,1.8,0,0,0,1.8-1.3l1.2-3.4a2.6,2.6,0,0,0,.3-1.1,1.4,1.4,0,0,0-.5-.9,1.8,1.8,0,0,0-1.1-.4c-.8,0-1.6.6-2.4,1.7a6.2,6.2,0,0,0-1.1,3.4C45.5,29.9,45.9,30.6,46.9,30.6Z"/><circle class="a" cx="32" cy="32" r="29"/></svg>