<svg xmlns="http://www.w3.org/2000/svg" viewBox="0 0 64 64"><defs><style>.a{fill:#fff;stroke-width:3px;}.a,.b,.c{stroke:#000;stroke-miterlimit:10;}.b{fill:none;}.b,.c{stroke-width:2px;}</style></defs><title>moSongLogo</title><circle class="a" cx="32" cy="32" r="30.5"/><path class="b" d="M10.8,41.3c-6.6,4.1,0,12.1,0,7.1,0,0-.9-34.7-.9-37.4-.1-.4,5.4,2.5,3.7,9.1-1.1,4.4-9.9,6.1-9.4,13.1.7,9.2,11.7,5.2,10.4,0-.8-3-5.7-3-5.7,0a1.4,1.4,0,1,0,2.8,0,1.4,1.4,0,1,0-2.8,0"/><path class="b" d="M14,14.3c-.5.1,14-4.5,25.1,2.4,9.3,5.8,18.8,11,22.1,9.3"/><path class="b" d="M13,21.5c-.6,0,14.5-4.6,26,2.3,9.7,5.8,19.5,11,23,9.3"/><path class="b" d="M10,38.6c-.5,0,14-4.6,25,2.3,9.3,5.8,18.7,11.1,22,9.4"/><path class="b" d="M9.6,42.7c-.5,0,12.9-4.6,23.1,2.3,8.5,5.8,17.2,11.1,20.3,9.4"/><path class="c" d="M24.5,37a9.3,9.3,0,0,1,11.7-3.6,8.5,8.5,0,0,1,4.6,10.8c-2.7-1.4-5.6-2.8-8.7-4.1S27,37.9,24.5,37Z"/><polygon points="24 29.8 24.3 32.9 27 31.1 24 29.8"/><polygon points="31.5 27 30.1 29.8 33.4 29.5 31.5 27"/><polygon points="38.3 28 35.8 30 39 31 38.3 28"/><polygon points="41.2 32.5 43.1 35.1 44.4 32.2 41.2 32.5"/><polygon points="44.3 37.9 44.5 41 47.2 39.2 44.3 37.9"/><polygon points="44 43.8 42.8 46.7 46 46.2 44 43.8"/><polygon points="19 34.5 20.8 37.1 22.2 34.3 19 34.5"/></svg>